<svg xmlns="http://www.w3.org/2000/svg" width="14.59" height="19.658" viewBox="0 0 14.59 19.658"><defs><style>.a{fill:#22577a;}.b{fill:#677baf;}</style></defs><path class="a" d="M13.054,7.564v-1.8a5.759,5.759,0,1,0-11.518,0v1.8A1.923,1.923,0,0,0,0,9.445v2.18a.384.384,0,0,0,.768,0V9.445A1.153,1.153,0,0,1,1.92,8.293H12.67a1.153,1.153,0,0,1,1.152,1.152v8.293a1.154,1.154,0,0,1-.768,1.086V16.51a.384.384,0,1,0-.768,0v2.38H1.92A1.153,1.153,0,0,1,.768,17.738V14.705a.384.384,0,0,0-.768,0v3.033a1.922,1.922,0,0,0,1.92,1.92H12.67a1.922,1.922,0,0,0,1.92-1.92V9.445A1.923,1.923,0,0,0,13.054,7.564ZM4.377,7.525V5.759a2.918,2.918,0,1,1,5.836,0V7.525Zm6.6,0V5.759a3.686,3.686,0,1,0-7.372,0V7.525H2.3V5.759a4.991,4.991,0,0,1,9.983,0V7.525Zm0,0"/><path class="a" d="M.384,333.256a.384.384,0,1,0-.271-.112A.386.386,0,0,0,.384,333.256Zm0,0" transform="translate(0 -319.723)"/><path class="b" d="M138.2,282.905a1.153,1.153,0,0,0,1.152-1.152v-2.039a2.073,2.073,0,1,0-2.3-.007v2.045A1.153,1.153,0,0,0,138.2,282.905Zm-1.3-4.918a1.305,1.305,0,1,1,1.895,1.165.384.384,0,0,0-.21.342v2.259a.384.384,0,1,1-.768,0v-2.264a.384.384,0,0,0-.208-.341A1.3,1.3,0,0,1,136.9,277.987Zm0,0" transform="translate(-130.902 -265.321)"/><path class="a" d="M320.384,379.768a.384.384,0,1,0-.271-.112A.386.386,0,0,0,320.384,379.768Zm0,0" transform="translate(-307.714 -364.449)"/></svg>