<svg xmlns="http://www.w3.org/2000/svg" width="17.419" height="12.383" viewBox="0 0 17.419 12.383"><defs><style>.a{fill:#677baf;}</style></defs><g transform="translate(3.034 5.97)"><path class="a" d="M22.368,18.705a.278.278,0,0,1-.192-.076L18.944,15.6a.281.281,0,1,1,.385-.409l3.232,3.032a.281.281,0,0,1-.193.485Z" transform="translate(-11.299 -15.111)"/><path class="a" d="M5.683,18.706a.281.281,0,0,1-.193-.485l3.233-3.032a.281.281,0,1,1,.385.409L5.875,18.629A.278.278,0,0,1,5.683,18.706Z" transform="translate(-5.402 -15.112)"/></g><path class="a" d="M16.015,16.865H1.4a1.406,1.406,0,0,1-1.4-1.4V5.886a1.406,1.406,0,0,1,1.4-1.4h14.61a1.406,1.406,0,0,1,1.4,1.4v9.575A1.406,1.406,0,0,1,16.015,16.865ZM1.4,5.044a.844.844,0,0,0-.843.843v9.575A.844.844,0,0,0,1.4,16.3h14.61a.844.844,0,0,0,.843-.843V5.886a.844.844,0,0,0-.843-.843Z" transform="translate(0 -4.482)"/><path class="a" d="M9,12.434a1.571,1.571,0,0,1-1.031-.372L.755,5.771a.281.281,0,1,1,.369-.424l7.212,6.291a1.051,1.051,0,0,0,1.324,0l7.2-6.281a.281.281,0,0,1,.37.424l-7.2,6.281A1.569,1.569,0,0,1,9,12.434Z" transform="translate(-0.289 -4.831)"/></svg>